<svg xmlns="http://www.w3.org/2000/svg" focusable="false" viewBox="0 0 512 512" aria-hidden="true">
  <path d="M477.2 169.2L421 360l-59.4 33.6H211L91 360S46.8 209.1 36.9 175.8l-2.1-6.6c-1.2-4.2-.6-8.7 1.8-12.6l35.1-14.4 88 34.2 66.9-114h58.8l66.9 114 88-34.2z" fill="#ffd400"></path>
  <g fill="#fdbf00">
    <path d="M477.2 169.2L421 360l-59.4 33.6H256V62.4h29.4l66.9 114 88-34.2z"></path>
    <path d="M91 360v45c0 8.4 6.6 15 15 15h300c8.4 0 15-6.6 15-15v-45H91zM256 0a45 45 0 1 0-.1 89.9A45 45 0 0 0 256 0z"></path>
  </g>
  <path d="M467 180a44.5 44.5 0 0 1-45-45 45 45 0 1 1 45 45z" fill="#ff9f00"></path>
  <path d="M45 180a45 45 0 1 1 .1-90.1A45 45 0 0 1 45 180z" fill="#fdbf00"></path>
  <path d="M256 90V0a45 45 0 1 1 0 90zM421 360v45c0 8.4-6.6 15-15 15H256v-60zM330.4 225.6a15.3 15.3 0 0 0-12.3-10.5l-33.6-4.8-15-29.7c-2.7-4.8-8.1-7.5-13.5-7.5s-10.8 2.7-13.5 7.5l-15 29.7-33.6 4.8c-5.7.9-10.5 4.8-12.3 10.5-1.5 5.4 0 11.4 4.2 15.3l24 23.1-5.7 32.4a15.2 15.2 0 0 0 6 14.7 15.4 15.4 0 0 0 15.6 1.2l30.3-15.6 30.3 15.6a14.7 14.7 0 0 0 15.6-1.2c4.8-3.6 6.9-9.3 6-14.7l-5.7-32.4 24-23.1c4.2-3.9 5.7-9.9 4.2-15.3z" fill="#ff9f00"></path>
  <path d="M286.3 312.3L256 296.7V173.1c5.4 0 10.8 2.7 13.5 7.5l15 29.7 33.6 4.8c5.7.9 10.5 4.8 12.3 10.5 1.5 5.4 0 11.4-4.2 15.3l-24 23.1 5.7 32.4c.9 5.4-1.2 11.1-6 14.7a14.7 14.7 0 0 1-15.6 1.2z" fill="#ff7816"></path>
</svg>
