<svg xmlns="http://www.w3.org/2000/svg" viewBox="0 0 48 48" width="48" height="48">
  <path d="M43 15.3v17.4a4 4 0 0 1-2 3.4l-15 8.7a4 4 0 0 1-2 .5V24l18.4-10.7c.4.6.6 1.3.6 2z" fill="#c5d4dd"/>
  <path d="M24 24v21.3a4 4 0 0 1-2-.5L7 36a4 4 0 0 1-2-3.4V15.3c0-.7.2-1.4.6-2z" fill="#e9eef2"/>
  <path d="M42.5 13.3 24 24 5.6 13.3c.3-.6.8-1 1.4-1.4l15-8.7a4 4 0 0 1 4 0L41 12a4 4 0 0 1 1.4 1.4z" fill="#f9f9f9"/>
  <g fill="#09105a">
    <path d="M26.1 11.8c1.2.6 1.2 1.7 0 2.4s-3 .7-4.2 0-1.2-1.8 0-2.4 3-.7 4.2 0zM18.8 35c1 .6 1.7 2 1.7 3 0 1.2-.8 1.6-1.7 1-1-.5-1.8-1.9-1.8-3s.8-1.6 1.8-1zM14.5 27.5c1 .5 1.8 1.9 1.8 3s-.8 1.6-1.8 1c-1-.5-1.8-1.9-1.8-3s.8-1.6 1.8-1zM10.2 20c1 .5 1.8 1.9 1.8 3s-.8 1.6-1.8 1c-1-.6-1.7-2-1.7-3 0-1.2.8-1.6 1.7-1zM30 25.4c1-.5 1.7 0 1.7 1 0 1.2-.8 2.5-1.8 3.1-1 .6-1.7.1-1.7-1s.8-2.5 1.7-3zM37 21.3c1-.5 1.8 0 1.8 1 0 1.2-.8 2.5-1.8 3.1-1 .6-1.7.1-1.7-1s.8-2.5 1.7-3zM30 33.6c1-.6 1.7-.1 1.7 1s-.7 2.5-1.7 3c-1 .6-1.8.2-1.8-1 0-1 .8-2.4 1.8-3zM37 29.5c1-.6 1.8-.1 1.8 1s-.8 2.5-1.7 3c-1 .6-1.8.2-1.8-1 0-1 .8-2.4 1.8-3z"/>
    <path d="m41.5 11-15-8.7a5 5 0 0 0-5 0L6.5 11A5 5 0 0 0 4 15.3v17.4A5 5 0 0 0 6.5 37l15 8.6a5 5 0 0 0 5 0l15-8.6a5 5 0 0 0 2.5-4.3V15.3a5 5 0 0 0-2.5-4.3zm-19-7a3 3 0 0 1 3 0l15 8.7.4.4L24 22.8 7 13.1l.5-.4zm-15 31.3A3 3 0 0 1 6 32.7V14.8l17 9.7v19.6c-.2 0-.3 0-.5-.2l-15-8.6zM42 32.7c0 1-.6 2-1.5 2.6l-15 8.6-.5.2V24.5l17-9.7v.5z"/>
  </g>
</svg>
